<svg width="80" height="80" viewBox="0 0 80 80" fill="none" xmlns="http://www.w3.org/2000/svg">
<path d="M0 40C0 17.9086 17.9086 0 40 0C62.0914 0 80 17.9086 80 40C80 62.0914 62.0914 80 40 80C17.9086 80 0 62.0914 0 40Z" fill="#10B981" fill-opacity="0.2"/>
<path d="M0 40C0 17.9086 17.9086 0 40 0C62.0914 0 80 17.9086 80 40C80 62.0914 62.0914 80 40 80C17.9086 80 0 62.0914 0 40Z" stroke="#E5E7EB"/>
<path d="M24.25 22H55.75V58H24.25V22Z" stroke="#E5E7EB"/>
<g clip-path="url(#clip0_6_645)">
<path d="M55.089 29.4109C55.9679 30.2899 55.9679 31.7172 55.089 32.5961L37.089 50.5961C36.2101 51.475 34.7827 51.475 33.9038 50.5961L24.9038 41.5961C24.0249 40.7172 24.0249 39.2899 24.9038 38.4109C25.7827 37.532 27.2101 37.532 28.089 38.4109L35.4999 45.8149L51.9108 29.4109C52.7897 28.532 54.2171 28.532 55.096 29.4109H55.089Z" fill="#10B981"/>
</g>
<defs>
<clipPath id="clip0_6_645">
<path d="M24.25 22H55.75V58H24.25V22Z" fill="white"/>
</clipPath>
</defs>
</svg>
